<svg xmlns="http://www.w3.org/2000/svg" viewBox="0 0 512 512"><defs><style>.cls-1{fill:#f0f0f0;}.cls-2{fill:#d80027;}.cls-3{fill:#0052b4;}</style></defs><g id="Layer_1" data-name="Layer 1"><circle class="cls-1" cx="256" cy="256" r="256"/><path class="cls-2" d="M244.87,256H512a256.281,256.281,0,0,0-8.819-66.783H244.87Z"/><path class="cls-2" d="M244.87,122.435H474.426a257.35,257.35,0,0,0-59.07-66.783H244.87Z"/><path class="cls-2" d="M256,512a254.9,254.9,0,0,0,159.356-55.652H96.644A254.9,254.9,0,0,0,256,512Z"/><path class="cls-2" d="M37.574,389.565H474.426a254.474,254.474,0,0,0,28.755-66.783H8.819A254.474,254.474,0,0,0,37.574,389.565Z"/><path class="cls-3" d="M118.584,39.978h23.329l-21.7,15.765L128.5,81.252,106.8,65.487,85.1,81.252l7.16-22.037a257.407,257.407,0,0,0-49.652,55.337h7.475L36.274,124.587q-3.228,5.385-6.194,10.938l6.6,20.3L24.37,146.885Q19.782,156.607,16,166.758l7.267,22.368H50.087l-21.7,15.765L36.676,230.4l-21.7-15.765-13,9.444A258.468,258.468,0,0,0,0,256H256V0A254.788,254.788,0,0,0,118.584,39.978ZM128.5,230.4l-21.7-15.765L85.1,230.4l8.289-25.509-21.7-15.765H98.515l8.288-25.509,8.288,25.509h26.822l-21.7,15.765Zm-8.289-100.083,8.289,25.509-21.7-15.765L85.1,155.826l8.289-25.509-21.7-15.765H98.515L106.8,89.043l8.288,25.509h26.822ZM220.328,230.4l-21.7-15.765L176.93,230.4l8.289-25.509-21.7-15.765h26.822l8.288-25.509,8.288,25.509h26.822l-21.7,15.765Zm-8.289-100.083,8.289,25.509-21.7-15.765-21.7,15.765,8.289-25.509-21.7-15.765h26.822l8.288-25.509,8.288,25.509h26.822Zm0-74.574,8.289,25.509-21.7-15.765-21.7,15.765,8.289-25.509-21.7-15.765h26.822l8.288-25.509,8.288,25.509h26.822Z"/></g><g id="Layer_2" data-name="Layer 2"><path class="cls-1" d="M256,0C397.385,0,512,114.615,512,256S397.385,512,256,512"/><path class="cls-3" d="M503.181,189.219a255.087,255.087,0,0,0-44.1-89.076l-89.075,89.076Z"/><path class="cls-3" d="M411.858,52.921a255.081,255.081,0,0,0-89.076-44.1V142Z"/><path class="cls-3" d="M322.783,503.181a255.091,255.091,0,0,0,89.075-44.1l-89.075-89.075V503.181Z"/><path class="cls-3" d="M370.005,322.784,459.08,411.86a255.079,255.079,0,0,0,44.1-89.076Z"/><path class="cls-2" d="M256,512a258.351,258.351,0,0,0,33.391-2.167V289.393H509.833a258.35,258.35,0,0,0,0-66.783H289.392V2.167A258.556,258.556,0,0,0,256,0"/><path class="cls-2" d="M322.783,322.784h0L437.019,437.02q7.881-7.878,15.048-16.435l-97.8-97.8H322.783Z"/><path class="cls-2" d="M322.783,189.219h0L437.02,74.981q-7.878-7.881-16.435-15.047l-97.8,97.8Z"/></g></svg>