<?xml version="1.0" encoding="utf-8"?>
<!-- Generator: Adobe Illustrator 25.0.0, SVG Export Plug-In . SVG Version: 6.00 Build 0)  -->
<svg version="1.1" id="Layer_1" xmlns="http://www.w3.org/2000/svg" xmlns:xlink="http://www.w3.org/1999/xlink" x="0px" y="0px"
	 viewBox="0 0 240 240" style="enable-background:new 0 0 240 240;" xml:space="preserve">
<style type="text/css">
	.st0{fill:#039BE5;}
	.st1{fill:#FFFFFF;}
</style>
<path class="st0" d="M120,0C53.7,0,0,53.7,0,120s53.7,120,120,120s120-53.7,120-120S186.3,0,120,0z"/>
<path class="st1" d="M136.2,151.8h31.1l4.9-31.5h-35.9V103c0-13.1,4.3-24.7,16.5-24.7h19.7V50.8c-3.5-0.5-10.8-1.5-24.6-1.5
	c-28.9,0-45.8,15.3-45.8,50v21H72.4v31.5h29.7v86.7c5.9,0.9,11.8,1.5,17.9,1.5c5.5,0,10.9-0.5,16.2-1.2V151.8z"/>
</svg>
